# xmcd
#
# Track frame offsets: 
#        150
#        13691
#        25136
#        37682
#        49384
#        62226
#        75230
#        86986
#        98148
#        110839
#        124243
#        136527
#        147716
#        160772
#        170991
#        184785
#        196104
#        208868
#        218547
#        228796
#
# Disc length: 3196 seconds
#
# Revision: 1
# Processed by: cddbd v1.5.2PL0 Copyright (c) Steve Scherf et al.
# Submitted via: ExactAudioCopyFreeDBPlugin 1.0
#
DISCID=150c7a14
DTITLE=Lightnin' Hopkins - ABC Of The Blues - Vol. 15 Lightnin' Hopkin
DTITLE=s
DYEAR=2010
DGENRE=Blues
TTITLE0=Katie Mae Blues
TTITLE1=Play With Your Poodle
TTITLE2=Automobile
TTITLE3="T" Model Blues
TTITLE4=Baby Please Don't Go
TTITLE5=Needed Time
TTITLE6=Short Haired Woman
TTITLE7=Mad With You
TTITLE8=Lightnin' Boogie
TTITLE9=Give Me Central 209
TTITLE10=Coffee Blues
TTITLE11=What's The Matter Now
TTITLE12=I'm Wild About You Baby
TTITLE13=Movin' On Out The Boogie
TTITLE14=Policy Game
TTITLE15=Lightnin' Jump
TTITLE16=Late In The Evening
TTITLE17=They Wonder Who I Am
TTITLE18=Had A Gal Called Sal
TTITLE19=Blues For My Cookie
EXTD=
EXTT0=
EXTT1=
EXTT2=
EXTT3=
EXTT4=
EXTT5=
EXTT6=
EXTT7=
EXTT8=
EXTT9=
EXTT10=
EXTT11=
EXTT12=
EXTT13=
EXTT14=
EXTT15=
EXTT16=
EXTT17=
EXTT18=
EXTT19=
PLAYORDER=
